<?xml version="1.0" encoding="UTF-8" standalone="no"?>
<!DOCTYPE svg PUBLIC "-//W3C//DTD SVG 1.1//EN" "http://www.w3.org/Graphics/SVG/1.1/DTD/svg11.dtd">
<svg width="100%" height="100%" viewBox="0 0 44 32" version="1.1" xmlns="http://www.w3.org/2000/svg" xmlns:xlink="http://www.w3.org/1999/xlink" xml:space="preserve" xmlns:serif="http://www.serif.com/" style="fill-rule:evenodd;clip-rule:evenodd;stroke-linejoin:round;stroke-miterlimit:2;">
    <path d="M0,8.202C0,4.108 3.091,0.691 7.178,0.447C11.038,0.216 16.196,0 22,0C27.804,0 32.962,0.216 36.822,0.447C40.908,0.691 44,4.108 44,8.202L44,23.886C44,27.943 40.964,31.329 36.914,31.572C33.179,31.796 28.1,32 22,32C15.9,32 10.821,31.796 7.085,31.572C3.036,31.329 0,27.943 0,23.886L0,8.202ZM31,16L17.5,8.206L17.5,23.794L31,16Z" style="fill:rgb(241,201,83);"/>
</svg>
