<?xml version="1.0" encoding="UTF-8" standalone="no"?>
<!DOCTYPE svg PUBLIC "-//W3C//DTD SVG 1.1//EN" "http://www.w3.org/Graphics/SVG/1.1/DTD/svg11.dtd">
<svg width="100%" height="100%" viewBox="0 0 32 32" version="1.1" xmlns="http://www.w3.org/2000/svg" xmlns:xlink="http://www.w3.org/1999/xlink" xml:space="preserve" xmlns:serif="http://www.serif.com/" style="fill-rule:evenodd;clip-rule:evenodd;stroke-linejoin:round;stroke-miterlimit:2;">
    <g>
        <path d="M25,0C28.866,0 32,3.134 32,7L32,25C32,28.866 28.866,32 25,32L7,32C3.134,32 0,28.866 0,25L0,7C0,3.134 3.134,0 7,0L25,0ZM24.437,8.582C24.262,8.491 24.091,8.392 23.926,8.285C23.446,7.967 23.006,7.594 22.616,7.171C21.638,6.053 21.273,4.918 21.138,4.123L21.144,4.123C21.031,3.464 21.078,3.037 21.085,3.037L16.632,3.037L16.632,20.254C16.632,20.485 16.632,20.714 16.623,20.94C16.623,20.968 16.62,20.994 16.618,21.024C16.618,21.036 16.618,21.049 16.616,21.062L16.616,21.072C16.569,21.69 16.371,22.286 16.039,22.81C15.707,23.333 15.252,23.766 14.714,24.073C14.152,24.392 13.517,24.559 12.871,24.558C10.797,24.558 9.116,22.867 9.116,20.778C9.116,18.689 10.797,16.997 12.871,16.997C13.264,16.997 13.654,17.059 14.028,17.181L14.033,12.647C12.9,12.501 11.748,12.591 10.651,12.912C9.554,13.233 8.536,13.777 7.66,14.511C6.893,15.178 6.247,15.974 5.754,16.862C5.566,17.186 4.856,18.489 4.771,20.602C4.717,21.801 5.077,23.044 5.249,23.558L5.249,23.569C5.357,23.871 5.775,24.903 6.457,25.773C7.007,26.471 7.657,27.084 8.386,27.593L8.386,27.582L8.397,27.593C10.552,29.057 12.942,28.961 12.942,28.961C13.356,28.945 14.742,28.961 16.315,28.215C18.061,27.389 19.055,26.157 19.055,26.157C19.69,25.421 20.194,24.582 20.548,23.676C20.95,22.617 21.085,21.347 21.085,20.839L21.085,11.705C21.139,11.738 21.858,12.213 21.858,12.213C21.858,12.213 22.895,12.878 24.512,13.31C25.672,13.618 27.235,13.683 27.235,13.683L27.235,9.263C26.687,9.322 25.575,9.149 24.437,8.582Z" style="fill:rgb(241,201,83);"/>
    </g>
</svg>
