<?xml version="1.0" encoding="UTF-8" standalone="no"?>
<!DOCTYPE svg PUBLIC "-//W3C//DTD SVG 1.1//EN" "http://www.w3.org/Graphics/SVG/1.1/DTD/svg11.dtd">
<svg width="100%" height="100%" viewBox="0 0 32 32" version="1.1" xmlns="http://www.w3.org/2000/svg" xmlns:xlink="http://www.w3.org/1999/xlink" xml:space="preserve" xmlns:serif="http://www.serif.com/" style="fill-rule:evenodd;clip-rule:evenodd;stroke-linejoin:round;stroke-miterlimit:2;">
    <g>
        <path d="M16.008,0.242L21.137,0.242C24.905,0.249 25.051,0.28 25.788,0.387C27.307,0.606 28.582,1.212 29.625,2.208C30.209,2.77 30.611,3.32 30.974,4.056C31.415,4.955 31.632,5.806 31.732,7.072C31.753,7.343 31.763,11.664 31.763,15.988C31.763,20.311 31.754,24.64 31.733,24.912C31.634,26.157 31.417,27.015 30.99,27.898C30.139,29.653 28.575,30.933 26.687,31.42C26.002,31.597 25.382,31.68 24.316,31.73C23.935,31.75 19.955,31.755 15.974,31.755C11.994,31.755 8.016,31.743 7.625,31.726C6.704,31.682 5.987,31.59 5.337,31.423C3.461,30.938 1.868,29.638 1.034,27.907C0.598,27.003 0.392,26.177 0.283,24.863C0.251,24.489 0.244,22.567 0.244,15.992C0.244,13.777 0.241,12.126 0.244,10.871C0.25,7.107 0.281,6.956 0.388,6.219C0.607,4.701 1.213,3.424 2.213,2.386C2.762,1.817 3.319,1.411 4.024,1.061C4.939,0.605 5.78,0.392 7.13,0.28C7.504,0.249 9.428,0.242 16.008,0.242ZM15.997,4.364C12.84,4.364 12.443,4.378 11.202,4.434C9.964,4.491 9.118,4.687 8.378,4.975C7.613,5.272 6.964,5.669 6.317,6.316C5.67,6.963 5.272,7.613 4.974,8.378C4.685,9.118 4.489,9.964 4.433,11.202C4.378,12.443 4.363,12.84 4.363,16C4.363,19.16 4.377,19.556 4.434,20.797C4.491,22.036 4.687,22.881 4.974,23.621C5.272,24.387 5.669,25.036 6.316,25.683C6.963,26.33 7.612,26.728 8.377,27.026C9.117,27.313 9.963,27.51 11.201,27.566C12.443,27.623 12.839,27.637 15.999,27.637C19.159,27.637 19.555,27.623 20.796,27.566C22.035,27.51 22.881,27.313 23.621,27.026C24.386,26.728 25.035,26.33 25.681,25.683C26.328,25.036 26.726,24.387 27.024,23.622C27.31,22.881 27.507,22.036 27.565,20.797C27.621,19.556 27.635,19.16 27.635,16C27.635,12.84 27.621,12.443 27.565,11.202C27.507,9.963 27.31,9.118 27.024,8.378C26.726,7.613 26.328,6.963 25.681,6.316C25.034,5.669 24.387,5.272 23.621,4.975C22.879,4.687 22.033,4.491 20.794,4.434C19.553,4.378 19.158,4.364 16,4.364L15.997,4.364ZM14.956,6.461L16,6.461C19.107,6.461 19.475,6.472 20.702,6.528C21.837,6.58 22.452,6.769 22.863,6.928C23.406,7.139 23.793,7.391 24.2,7.799C24.607,8.206 24.859,8.594 25.071,9.137C25.23,9.547 25.42,10.162 25.471,11.297C25.527,12.524 25.539,12.892 25.539,15.998C25.539,19.103 25.527,19.471 25.471,20.698C25.419,21.833 25.23,22.448 25.071,22.858C24.86,23.401 24.607,23.788 24.2,24.195C23.793,24.602 23.406,24.854 22.863,25.065C22.453,25.225 21.837,25.414 20.702,25.466C19.476,25.522 19.107,25.534 16,25.534C12.893,25.534 12.525,25.522 11.298,25.466C10.164,25.414 9.548,25.224 9.138,25.065C8.595,24.854 8.207,24.602 7.8,24.195C7.392,23.787 7.14,23.4 6.929,22.857C6.77,22.447 6.58,21.832 6.528,20.697C6.472,19.47 6.461,19.102 6.461,15.995C6.461,12.887 6.472,12.521 6.528,11.294C6.58,10.159 6.77,9.544 6.929,9.133C7.14,8.59 7.392,8.203 7.8,7.795C8.207,7.388 8.595,7.136 9.138,6.925C9.548,6.765 10.164,6.575 11.298,6.523C12.372,6.475 12.788,6.46 14.956,6.458L14.956,6.461ZM22.212,8.393C21.441,8.393 20.815,9.018 20.815,9.789C20.815,10.56 21.441,11.185 22.212,11.185C22.982,11.185 23.608,10.56 23.608,9.789C23.608,9.018 22.982,8.393 22.212,8.393ZM16,10.024C12.7,10.024 10.025,12.7 10.025,16C10.025,19.3 12.7,21.975 16,21.975C19.3,21.975 21.975,19.3 21.975,16C21.975,12.7 19.3,10.024 16,10.024ZM16,12.121C18.142,12.121 19.879,13.858 19.879,16C19.879,18.142 18.142,19.879 16,19.879C13.858,19.879 12.122,18.142 12.122,16C12.122,13.858 13.858,12.121 16,12.121Z" style="fill:rgb(241,201,83);"/>
    </g>
</svg>
