<?xml version="1.0" encoding="UTF-8" standalone="no"?>
<!DOCTYPE svg PUBLIC "-//W3C//DTD SVG 1.1//EN" "http://www.w3.org/Graphics/SVG/1.1/DTD/svg11.dtd">
<svg width="100%" height="100%" viewBox="0 0 32 33" version="1.1" xmlns="http://www.w3.org/2000/svg" xmlns:xlink="http://www.w3.org/1999/xlink" xml:space="preserve" xmlns:serif="http://www.serif.com/" style="fill-rule:evenodd;clip-rule:evenodd;stroke-linejoin:round;stroke-miterlimit:2;">
    <path d="M11.75,31.429C4.98,29.565 0,23.36 0,16C0,7.169 7.169,0 16,0C24.831,0 32,7.169 32,16C32,24.067 26.017,30.747 18.25,31.843L18.25,21.25L22.705,21.25L23.805,15.75L18.217,15.75C18.143,15.155 18.126,14.241 18.325,13.368C18.47,12.735 18.729,12.121 19.176,11.678C19.614,11.243 20.217,11.066 20.837,11.011C21.831,10.923 22.874,11.15 23.46,11.247L23.75,11.295L23.75,5.998L23.531,5.971C22.18,5.803 19.478,5.572 17.451,5.974C14.852,6.489 12.783,8.374 12.263,9.92C11.881,11.057 11.764,14.264 11.751,15.75L8.546,15.75L8.546,21.25L11.75,21.25L11.75,31.429Z" style="fill:rgb(241,201,83);"/>
</svg>
