<svg width="61" height="61" viewBox="0 0 61 61" fill="none" xmlns="http://www.w3.org/2000/svg">
<mask id="mask0_3288_981" style="mask-type:alpha" maskUnits="userSpaceOnUse" x="0" y="0" width="61" height="61">
<rect x="60.4022" y="48.583" width="50" height="50" transform="rotate(166.327 60.4022 48.583)" fill="#D9D9D9"/>
</mask>
<g mask="url(#mask0_3288_981)">
<path d="M30.2699 5.97027L30.7948 8.12774C30.9435 8.73902 30.8644 9.30097 30.5576 9.8136C30.2508 10.3262 29.7963 10.6558 29.1941 10.8023C28.5919 10.9488 28.0368 10.8649 27.5288 10.5505C27.0208 10.236 26.6925 9.77321 26.5437 9.16192L26.0189 7.00446C25.8702 6.39317 25.9492 5.83122 26.256 5.3186C26.5628 4.80597 27.0173 4.4764 27.6195 4.32989C28.2217 4.18338 28.7768 4.26733 29.2848 4.58174C29.7928 4.89614 30.1212 5.35899 30.2699 5.97027ZM52.5226 23.4082L50.3971 23.9253C49.7949 24.0718 49.2398 23.9878 48.7318 23.6734C48.2238 23.359 47.8954 22.8962 47.7467 22.2849C47.598 21.6736 47.6771 21.1117 47.9838 20.5991C48.2906 20.0864 48.7451 19.7569 49.3474 19.6104L51.4729 19.0933C52.0751 18.9467 52.6302 19.0307 53.1382 19.3451C53.6462 19.6595 53.9745 20.1224 54.1232 20.7336C54.272 21.3449 54.1929 21.9069 53.8861 22.4195C53.5793 22.9321 53.1248 23.2617 52.5226 23.4082ZM16.389 32.1988L14.2635 32.7159C13.6613 32.8624 13.1062 32.7784 12.5982 32.464C12.0902 32.1496 11.7619 31.6868 11.6132 31.0755C11.4644 30.4642 11.5435 29.9023 11.8503 29.3896C12.1571 28.877 12.6116 28.5474 13.2138 28.4009L15.3393 27.8838C15.9415 27.7373 16.4966 27.8213 17.0046 28.1357C17.5126 28.4501 17.841 28.9129 17.9897 29.5242C18.1384 30.1355 18.0593 30.6975 17.7526 31.2101C17.4458 31.7227 16.9913 32.0523 16.389 32.1988ZM17.824 13.1114L19.6792 14.2597C20.1651 14.5604 20.4824 15.0164 20.6312 15.6277C20.7799 16.239 20.7075 16.7898 20.414 17.2801C20.1206 17.7704 19.6728 18.0889 19.0705 18.2354C18.4683 18.3819 17.9242 18.3048 17.4383 18.004L15.5831 16.8558C15.0972 16.555 14.7799 16.099 14.6312 15.4878C14.4824 14.8765 14.5548 14.3257 14.8483 13.8353C15.1417 13.345 15.5895 13.0266 16.1918 12.8801C16.794 12.7335 17.3381 12.8107 17.824 13.1114ZM44.0648 9.92673L42.9444 11.7989C42.6509 12.2893 42.2031 12.6077 41.6009 12.7542C40.9987 12.9007 40.4546 12.8236 39.9687 12.5229C39.4828 12.2221 39.1655 11.7661 39.0168 11.1548C38.8681 10.5435 38.9404 9.99274 39.2339 9.5024L40.3543 7.63021C40.6478 7.13987 41.0956 6.82145 41.6978 6.67494C42.3001 6.52843 42.8441 6.60554 43.33 6.90628C43.8159 7.20701 44.1332 7.66302 44.2819 8.27431C44.4307 8.88558 44.3583 9.43639 44.0648 9.92673ZM30.2439 15.1172C33.1841 14.4019 35.9463 14.8439 38.5304 16.4433C41.1146 18.0427 42.7697 20.3346 43.4957 23.3191C43.9156 25.0451 43.9263 26.7468 43.5277 28.4244C43.1291 30.1019 42.4012 31.6215 41.3442 32.9832L42.9188 39.4556C43.2075 40.6422 43.0384 41.7592 42.4114 42.8068C41.7845 43.8543 40.8866 44.5203 39.7175 44.8047L35.4665 45.8389C34.2975 46.1233 33.1939 45.9442 32.1559 45.3017C31.1178 44.6593 30.4544 43.7447 30.1658 42.5581L28.5912 36.0857C27.0267 35.3618 25.6822 34.3464 24.5575 33.0394C23.4329 31.7325 22.6606 30.216 22.2407 28.49C21.5146 25.5055 21.9319 22.7094 23.4925 20.1017C25.0531 17.494 27.3036 15.8325 30.2439 15.1172ZM37.5656 35.9591C37.2288 36.1172 36.8877 36.2573 36.5422 36.3794C36.1967 36.5016 35.8468 36.6057 35.4925 36.6919C35.1383 36.7781 34.7797 36.8463 34.4167 36.8965C34.0537 36.9467 33.6863 36.979 33.3146 36.9933L34.4168 41.5239L38.6678 40.4897L37.5656 35.9591ZM31.2936 19.4322C29.5223 19.8631 28.1699 20.8586 27.2362 22.4188C26.3025 23.9789 26.0543 25.658 26.4917 27.4558C26.9291 29.2537 27.9208 30.6311 29.4668 31.588C31.0129 32.5449 32.6716 32.8079 34.4428 32.377C36.2141 31.9461 37.5665 30.9505 38.5002 29.3904C39.4339 27.8302 39.6821 26.1512 39.2447 24.3533C38.8073 22.5554 37.8156 21.178 36.2695 20.2211C34.7235 19.2642 33.0648 19.0013 31.2936 19.4322Z" fill="#F1C953"/>
</g>
</svg>
